<svg width="101" height="26" viewBox="0 0 101 26" fill="none" xmlns="http://www.w3.org/2000/svg">
<path d="M97.7046 4.58113H98.1458C98.357 4.58113 98.5013 4.54925 98.579 4.48708C98.616 4.45737 98.6456 4.41942 98.6654 4.37624C98.6852 4.33307 98.6946 4.28587 98.693 4.2384C98.6939 4.17453 98.6745 4.11201 98.6376 4.05987C98.5993 4.00609 98.5455 3.96534 98.4833 3.9431C98.4184 3.9152 98.296 3.90405 98.1179 3.90405H97.7046V4.58113ZM97.34 5.85081V3.59719H98.1147C98.3789 3.59719 98.5714 3.61831 98.6906 3.65936C98.8085 3.7008 98.9026 3.77413 98.9735 3.87854C99.0437 3.98096 99.0791 4.09135 99.0791 4.20692C99.0791 4.37231 99.0193 4.51497 98.9022 4.63732C98.7842 4.75887 98.628 4.82781 98.4339 4.84256C98.5136 4.87563 98.5774 4.91549 98.6256 4.96171C98.7149 5.04979 98.8261 5.19923 98.9576 5.40885L99.2318 5.85121H98.7842L98.5858 5.49533C98.4276 5.21716 98.3024 5.04221 98.2088 4.97168C98.1418 4.91867 98.0458 4.89197 97.9186 4.89197H97.7046V5.85081H97.34ZM98.2574 2.94003C97.9625 2.94003 97.6755 3.01575 97.3958 3.16639C97.1197 3.31547 96.8922 3.54082 96.7406 3.81558C96.5867 4.08246 96.5053 4.38501 96.5047 4.69311C96.5047 4.99559 96.5816 5.28531 96.7358 5.56348C96.8913 5.84005 97.1077 6.05605 97.3866 6.21067C97.6516 6.36299 97.9518 6.44336 98.2574 6.4438C98.5603 6.4438 98.8504 6.36649 99.1277 6.21067C99.4011 6.06116 99.6259 5.8366 99.7757 5.56348C99.9272 5.29835 100.007 4.99843 100.008 4.69311C100.008 4.38864 99.9292 4.09534 99.7725 3.81558C99.6217 3.54015 99.3941 3.31448 99.1174 3.16599C98.8372 3.01535 98.5503 2.94003 98.2574 2.94003ZM98.2574 2.59412C98.6093 2.59412 98.954 2.68458 99.2887 2.86511C99.6202 3.0414 99.8926 3.31104 100.072 3.64063C100.261 3.97777 100.354 4.32807 100.354 4.69311C100.354 5.05417 100.262 5.40208 100.077 5.73564C99.8979 6.06377 99.6283 6.33369 99.3003 6.51354C98.9823 6.69391 98.623 6.78891 98.2574 6.78932C97.8914 6.78901 97.5317 6.694 97.2133 6.51354C96.8857 6.33315 96.6162 6.06336 96.4362 5.73564C96.2551 5.41793 96.1593 5.05879 96.158 4.69311C96.158 4.32807 96.252 3.97777 96.4409 3.64063C96.6217 3.31169 96.8942 3.04239 97.2252 2.86551C97.5616 2.68458 97.9047 2.59412 98.2574 2.59412Z" fill="#808080"/>
<path fill-rule="evenodd" clip-rule="evenodd" d="M11.447 0.00304842C10.3961 0.0309447 9.33839 0.250528 8.33293 0.612782C4.43901 2.23794 1.73107 5.78396 0.506029 10.0385C0.299197 10.8372 0.131421 11.6366 0.0413561 12.4615C0.0413561 12.4882 -0.0232039 13.3004 0.0927649 13.0812C0.208734 12.8883 0.260143 12.6042 0.324703 12.3846C0.917698 10.3864 1.64061 8.56801 2.74929 6.84043C5.40581 2.93296 9.67354 0.419102 14.186 1.81192C15.0245 2.09487 15.7721 2.50814 16.5197 2.99791C16.6612 3.10113 17.7057 3.92646 17.4737 3.17844C17.2805 2.58625 16.7907 2.08212 16.3647 1.68241C14.9308 0.441419 13.1988 -0.0435782 11.447 0.00304842ZM44.3817 3.91251C43.776 3.91251 43.3121 4.11974 42.9893 4.54536C42.6537 4.95743 42.4995 5.57673 42.4995 6.38931V12.269C41.7515 11.4441 40.9784 10.8503 40.1921 10.4498C39.6509 10.1886 39.0717 10.0146 38.4761 9.93453C38.0832 9.88172 37.6872 9.85602 37.2909 9.85761C35.3182 9.85761 33.7062 10.553 32.4947 11.9451C31.282 13.3379 30.6763 15.2727 30.6763 17.761C30.6763 18.9347 30.8317 20.0298 31.1278 21.0357C31.4378 22.0415 31.8886 22.9179 32.4815 23.6659C33.0519 24.389 33.7733 24.9789 34.5953 25.3943C35.4079 25.7928 36.2842 26 37.2387 26C37.6647 26 38.0771 25.9601 38.4761 25.8832C38.7298 25.8432 38.9799 25.7831 39.2241 25.7035C39.828 25.4976 40.3974 25.2021 40.9134 24.8268C41.4426 24.4394 41.9579 23.9369 42.4995 23.3311V23.7169C42.4995 24.453 42.6804 25.0073 43.0279 25.4066C43.3758 25.7932 43.8409 26 44.3817 26C44.9101 26 45.3744 25.8067 45.7227 25.4325C46.071 25.0455 46.238 24.4789 46.238 23.7169V6.18208C46.238 5.44761 46.0838 4.88012 45.761 4.49316C45.4266 4.10659 44.9619 3.91251 44.3817 3.91251ZM93.0408 3.91251C92.4351 3.91251 91.9708 4.11974 91.6488 4.54536C91.326 4.95743 91.1586 5.57673 91.1586 6.38931V12.269C90.411 11.4441 89.6371 10.8503 88.8512 10.4498C88.361 10.2047 87.7812 10.0254 87.136 9.93453C86.7427 9.88166 86.3463 9.85596 85.9496 9.85761C83.9777 9.85761 82.3788 10.553 81.1534 11.9451C79.9419 13.3379 79.3354 15.2727 79.3354 17.761C79.3354 18.9347 79.49 20.0298 79.7992 21.0357C80.1085 22.0415 80.5469 22.9179 81.1402 23.6659C81.7108 24.3893 82.4326 24.9792 83.2552 25.3943C84.067 25.7928 84.9445 26 85.8986 26C86.3361 26 86.749 25.9601 87.136 25.8832C87.3942 25.845 87.6381 25.7808 87.8832 25.7035C88.487 25.4977 89.0563 25.2021 89.5721 24.8268C90.1013 24.4394 90.6302 23.9369 91.1582 23.3311V23.7169C91.1582 24.453 91.3387 25.0073 91.687 25.4066C92.0481 25.7932 92.4992 26 93.0404 26C93.5955 26 94.0459 25.8067 94.395 25.4325C94.7433 25.0455 94.9234 24.4789 94.9234 23.7169V6.18208C94.9234 5.44761 94.756 4.88012 94.434 4.49316C94.0985 4.10659 93.6473 3.91251 93.0404 3.91251H93.0408ZM10.4307 4.98652C9.8857 4.97226 9.34584 5.09547 8.86097 5.34479C7.24936 6.15657 6.60416 8.12924 7.42949 9.74085C8.24167 11.3529 10.2135 11.9981 11.8255 11.1731C13.4372 10.3605 14.082 8.38788 13.257 6.77706C12.992 6.25081 12.5892 5.80632 12.0915 5.49099C11.5937 5.17566 11.0198 5.00131 10.4307 4.98652ZM55.3541 9.80541C54.2064 9.81856 53.1623 10.0118 52.2082 10.3721C51.2279 10.7599 50.4033 11.3146 49.733 12.024C49.0619 12.7453 48.5462 13.6101 48.1979 14.6151C47.8496 15.6214 47.6695 16.7173 47.6695 17.8902C47.6695 20.3916 48.3916 22.3508 49.8095 23.8074C51.1505 25.1878 52.9949 25.9091 55.3541 25.9861C55.4956 25.9996 55.6247 26 55.7666 26C56.8884 26 57.8684 25.8577 58.7324 25.5616C59.5959 25.2643 60.3049 24.9041 60.872 24.4649C61.4526 24.0146 61.8651 23.5499 62.1493 23.0725C62.433 22.5959 62.5741 22.1706 62.5741 21.8227C62.5741 21.423 62.4458 21.1006 62.2007 20.8806C61.9436 20.6622 61.6073 20.5455 61.2076 20.5455C60.821 20.5455 60.538 20.6363 60.3308 20.8037C59.9343 21.1813 59.5304 21.5511 59.1193 21.9128C58.7946 22.1857 58.4544 22.4396 58.1003 22.6732C57.7257 22.9051 57.3527 23.0864 56.9526 23.1892C56.566 23.3048 56.1276 23.3566 55.6506 23.3566C55.547 23.3566 55.4442 23.3566 55.3541 23.3435C54.7615 23.3048 54.2064 23.1374 53.7042 22.8274C53.1236 22.4799 52.6462 21.9646 52.2991 21.2939C51.9376 20.5977 51.7567 19.7983 51.7439 18.896H59.5314C60.5635 18.896 61.3753 18.7414 61.9552 18.4576C62.5231 18.1484 62.8068 17.5032 62.8068 16.5105C62.8068 15.4273 62.5358 14.3704 61.9811 13.3263C61.4267 12.2942 60.5891 11.4441 59.4804 10.7854C58.3709 10.1286 57.0295 9.80541 55.4832 9.80541H55.3541ZM71.2777 9.80541C70.13 9.81856 69.0727 10.0118 68.1318 10.3721C67.1515 10.7599 66.3265 11.3146 65.6423 12.024C64.9847 12.7453 64.4698 13.6101 64.1223 14.6151C63.7736 15.6214 63.5931 16.7173 63.5931 17.8902C63.5931 20.3916 64.302 22.3508 65.7204 23.8074C67.0606 25.1878 68.9181 25.9091 71.2777 25.9861C71.4072 25.9996 71.5475 26 71.6894 26C72.7989 26 73.7916 25.8577 74.6552 25.5616C75.5187 25.2643 76.2281 24.9041 76.7952 24.4649C77.3635 24.0146 77.7879 23.5499 78.0721 23.0725C78.3554 22.5959 78.4977 22.1706 78.4977 21.8227C78.4977 21.423 78.3681 21.1006 78.1103 20.8806C77.8656 20.6622 77.5309 20.5455 77.118 20.5455C76.7434 20.5455 76.46 20.6363 76.2536 20.8037C75.7507 21.268 75.3522 21.6418 75.0425 21.9128C74.7133 22.1858 74.3687 22.4397 74.0104 22.6732C73.6505 22.9051 73.2627 23.0864 72.8766 23.1892C72.4761 23.3048 72.0516 23.3566 71.5742 23.3566C71.4706 23.3566 71.3678 23.3566 71.2777 23.3435C70.6843 23.3048 70.1296 23.1374 69.6267 22.8274C69.0337 22.4799 68.5694 21.9646 68.2087 21.2939C67.8604 20.5977 67.6795 19.7983 67.6667 18.896H75.441C76.4859 18.896 77.2981 18.7414 77.8656 18.4576C78.4463 18.1484 78.7288 17.5032 78.7288 16.5105C78.7288 15.4273 78.4463 14.3704 77.8915 13.3263C77.3372 12.2942 76.5115 11.4441 75.3896 10.7854C74.2805 10.1286 72.9535 9.80541 71.3929 9.80541H71.2777ZM17.1258 9.83211C16.5456 9.83211 16.0937 10.025 15.7717 10.3988C15.4365 10.7599 15.2687 11.3273 15.2687 12.0877V23.5754C15.2687 24.3485 15.4493 24.9551 15.8227 25.3679C16.1973 25.7928 16.6608 26 17.2414 26C17.8344 26 18.311 25.7928 18.6856 25.3943C19.0595 24.9814 19.2531 24.3872 19.2531 23.5754V18.6119C19.2531 16.974 19.3432 15.8784 19.5365 15.285C19.8071 14.5378 20.2462 13.958 20.8261 13.5324C21.4067 13.1195 22.0511 12.9003 22.7605 12.9003C23.8425 12.9003 24.5777 13.2486 24.9392 13.944C25.2998 14.641 25.4812 15.6457 25.4812 16.9616V23.5754C25.4812 24.3485 25.6609 24.9551 26.0351 25.3679C26.4085 25.7928 26.886 26 27.4789 26C28.0588 26 28.5358 25.7928 28.8969 25.3803C29.2583 24.9814 29.4512 24.3744 29.4512 23.5754V16.1881C29.4512 15.3117 29.413 14.5888 29.3352 14.0345C29.2579 13.467 29.091 12.9394 28.82 12.4488C28.4075 11.6111 27.8013 10.9663 26.976 10.5148C26.1507 10.0632 25.2102 9.83211 24.1653 9.83211C23.0821 9.83211 22.128 10.0505 21.29 10.4765C20.465 10.9145 19.7047 11.5852 18.9945 12.5129V12.024C18.9945 11.5597 18.9176 11.16 18.7502 10.8244C18.5828 10.4897 18.3505 10.2442 18.0671 10.0764C17.7826 9.90862 17.4733 9.83211 17.1258 9.83211ZM55.3418 12.5779H55.3541C56.3847 12.5779 57.2232 12.9131 57.8548 13.5838C58.5004 14.2537 58.8607 15.2727 58.9635 16.6396H51.7435C51.8858 15.299 52.2724 14.28 52.904 13.5969C53.5357 12.9135 54.3479 12.5779 55.3414 12.5779H55.3418ZM71.2646 12.5779H71.2777C72.3091 12.5779 73.146 12.9131 73.7776 13.5838C74.4101 14.2537 74.7839 15.2727 74.8743 16.6396H67.6671C67.7959 15.299 68.1828 14.28 68.8276 13.5969C69.4597 12.9135 70.2719 12.5779 71.2646 12.5779ZM38.4258 12.8098H38.4761C39.1595 12.8098 39.7916 13.0163 40.3591 13.4164C40.9521 13.8157 41.4171 14.3959 41.7646 15.1567C42.1006 15.9175 42.2807 16.8329 42.2807 17.8905C42.2807 19.0247 42.1006 19.9656 41.7646 20.7133C41.4171 21.4613 40.9521 22.0152 40.3722 22.3759C39.8043 22.7369 39.1595 22.9187 38.4761 22.9187H38.4641C37.7679 22.9187 37.1354 22.725 36.5552 22.3512C35.963 21.9646 35.5111 21.3971 35.1763 20.6495C34.8408 19.8887 34.6734 18.9733 34.6734 17.8902C34.6734 16.8715 34.8288 15.9689 35.1381 15.2081C35.4601 14.435 35.8984 13.8412 36.4783 13.4287C37.0458 13.0027 37.7033 12.8098 38.4258 12.8098ZM87.0969 12.8098H87.136C87.8194 12.8098 88.4511 13.0163 89.0313 13.4164C89.6115 13.8157 90.0762 14.3959 90.4237 15.1567C90.772 15.9175 90.9398 16.8329 90.9398 17.8905C90.9398 19.0247 90.772 19.9656 90.4237 20.7133C90.0762 21.4613 89.6108 22.0152 89.0437 22.3759C88.4727 22.7354 87.8107 22.9238 87.136 22.9187H87.1236C86.4278 22.9187 85.7949 22.725 85.2147 22.3512C84.6352 21.9646 84.171 21.3971 83.8358 20.6495C83.5007 19.8887 83.3329 18.9733 83.3329 17.8902C83.3329 16.8715 83.4863 15.9693 83.8091 15.2081C84.1188 14.435 84.5703 13.8412 85.1378 13.4287C85.7188 13.0027 86.3624 12.8098 87.0969 12.8098ZM12.6385 12.9394C11.6064 13.5571 10.3949 13.9058 9.10566 13.9058C8.83546 13.9058 8.57722 13.8934 8.30623 13.8671V23.3566C8.30623 24.2334 8.51266 24.8909 8.91277 25.3297C9.32524 25.7808 9.82857 26 10.4602 26C11.1042 26 11.6339 25.7808 12.0324 25.3424C12.4329 24.9041 12.6385 24.2465 12.6385 23.3566V12.9398V12.9394Z" fill="#2164F3"/>
</svg>
