<svg width="87" height="30" viewBox="0 0 87 30" fill="none" xmlns="http://www.w3.org/2000/svg">
<path d="M34.66 12.42C34.98 11.9 35.44 11.48 36.04 11.16C36.64 10.84 37.3267 10.68 38.1 10.68C39.02 10.68 39.8533 10.9133 40.6 11.38C41.3467 11.8467 41.9333 12.5133 42.36 13.38C42.8 14.2467 43.02 15.2533 43.02 16.4C43.02 17.5467 42.8 18.56 42.36 19.44C41.9333 20.3067 41.3467 20.98 40.6 21.46C39.8533 21.9267 39.02 22.16 38.1 22.16C37.3133 22.16 36.6267 22.0067 36.04 21.7C35.4533 21.38 34.9933 20.96 34.66 20.44V22H31.24V7.2H34.66V12.42ZM39.54 16.4C39.54 15.5467 39.3 14.88 38.82 14.4C38.3533 13.9067 37.7733 13.66 37.08 13.66C36.4 13.66 35.82 13.9067 35.34 14.4C34.8733 14.8933 34.64 15.5667 34.64 16.42C34.64 17.2733 34.8733 17.9467 35.34 18.44C35.82 18.9333 36.4 19.18 37.08 19.18C37.76 19.18 38.34 18.9333 38.82 18.44C39.3 17.9333 39.54 17.2533 39.54 16.4ZM55.3342 16.24C55.3342 16.56 55.3142 16.8933 55.2742 17.24H47.5342C47.5876 17.9333 47.8076 18.4667 48.1942 18.84C48.5942 19.2 49.0809 19.38 49.6542 19.38C50.5076 19.38 51.1009 19.02 51.4342 18.3H55.0742C54.8876 19.0333 54.5476 19.6933 54.0542 20.28C53.5742 20.8667 52.9676 21.3267 52.2342 21.66C51.5009 21.9933 50.6809 22.16 49.7742 22.16C48.6809 22.16 47.7076 21.9267 46.8542 21.46C46.0009 20.9933 45.3342 20.3267 44.8542 19.46C44.3742 18.5933 44.1342 17.58 44.1342 16.42C44.1342 15.26 44.3676 14.2467 44.8342 13.38C45.3142 12.5133 45.9809 11.8467 46.8342 11.38C47.6876 10.9133 48.6676 10.68 49.7742 10.68C50.8542 10.68 51.8142 10.9067 52.6542 11.36C53.4942 11.8133 54.1476 12.46 54.6142 13.3C55.0942 14.14 55.3342 15.12 55.3342 16.24ZM51.8342 15.34C51.8342 14.7533 51.6342 14.2867 51.2342 13.94C50.8342 13.5933 50.3342 13.42 49.7342 13.42C49.1609 13.42 48.6742 13.5867 48.2742 13.92C47.8876 14.2533 47.6476 14.7267 47.5542 15.34H51.8342ZM60.5584 12.7C60.9584 12.0867 61.4584 11.6067 62.0584 11.26C62.6584 10.9 63.3251 10.72 64.0584 10.72V14.34H63.1184C62.2651 14.34 61.6251 14.5267 61.1984 14.9C60.7718 15.26 60.5584 15.9 60.5584 16.82V22H57.1384V10.84H60.5584V12.7ZM71.9131 19.1V22H70.1731C68.9331 22 67.9665 21.7 67.2731 21.1C66.5798 20.4867 66.2331 19.4933 66.2331 18.12V13.68H64.8731V10.84H66.2331V8.12H69.6531V10.84H71.8931V13.68H69.6531V18.16C69.6531 18.4933 69.7331 18.7333 69.8931 18.88C70.0531 19.0267 70.3198 19.1 70.6931 19.1H71.9131ZM80.6781 10.72C81.9581 10.72 82.9848 11.1467 83.7581 12C84.5315 12.84 84.9181 14 84.9181 15.48V22H81.5181V15.94C81.5181 15.1933 81.3248 14.6133 80.9381 14.2C80.5515 13.7867 80.0315 13.58 79.3781 13.58C78.7248 13.58 78.2048 13.7867 77.8181 14.2C77.4315 14.6133 77.2381 15.1933 77.2381 15.94V22H73.8181V7.2H77.2381V12.34C77.5848 11.8467 78.0581 11.4533 78.6581 11.16C79.2581 10.8667 79.9315 10.72 80.6781 10.72Z" fill="#21202A"/>
<path fill-rule="evenodd" clip-rule="evenodd" d="M12 23.8983C8.65213 23.8983 5.93814 21.1096 5.93814 17.6695V11.4407H12C15.3479 11.4407 18.0619 14.2294 18.0619 17.6695C18.0619 21.1096 15.3479 23.8983 12 23.8983ZM0 17.6695C0 24.4794 5.37258 30 12 30C18.6274 30 24 24.4794 24 17.6695C24 10.8595 18.6274 5.33898 12 5.33898H5.93814C5.93814 2.39034 3.61187 0 0.742268 0H0V17.6695Z" fill="#3936C4"/>
</svg>
