<svg width="161" height="26" viewBox="0 0 161 26" fill="none" xmlns="http://www.w3.org/2000/svg">
<path d="M159.659 9.04992H157.046L156.719 6.16017C156.705 6.03825 156.647 5.92568 156.556 5.84394C156.464 5.76219 156.346 5.717 156.223 5.71699L153.314 5.71612C153.266 5.7161 153.219 5.72553 153.174 5.74386C153.13 5.7622 153.09 5.78908 153.056 5.82297C153.022 5.85687 152.995 5.89711 152.977 5.94139C152.959 5.98568 152.949 6.03315 152.949 6.08108V9.04992L152.975 12.1543V17.5121C152.975 18.1923 153.051 18.8091 153.204 19.3617C153.357 19.9146 153.607 20.3906 153.955 20.7902C154.302 21.1906 154.765 21.4966 155.341 21.7088C155.917 21.9211 156.63 22.0277 157.479 22.0277C157.92 22.0277 158.361 21.9894 158.802 21.9131C159.117 21.8588 159.393 21.7977 159.631 21.7302C159.707 21.7078 159.775 21.6607 159.822 21.5961C159.869 21.5316 159.894 21.4532 159.892 21.3733L159.854 19.0703C159.85 18.8414 159.639 18.6778 159.414 18.7211C159.154 18.7698 158.889 18.7949 158.624 18.7959C158.03 18.7959 157.619 18.6473 157.39 18.349C157.161 18.0509 157.046 17.604 157.046 17.008V12.1543H159.659C159.756 12.1543 159.848 12.1158 159.917 12.0475C159.985 11.9791 160.024 11.8863 160.024 11.7896V9.41459C160.024 9.31789 159.985 9.22515 159.917 9.15677C159.848 9.0884 159.756 9.04996 159.659 9.04992H159.659ZM46.3372 10.2127C45.9724 9.72919 45.4932 9.33478 44.8994 9.02932C44.3223 8.73285 43.6253 8.5815 42.8089 8.57294L42.8114 8.57149C42.7983 8.57149 42.786 8.57207 42.7731 8.57222C42.7608 8.57222 42.7489 8.57135 42.7364 8.57135C42.6912 8.57135 42.6471 8.57468 42.6024 8.57584C41.6602 8.59877 40.8546 8.77392 40.1889 9.10565C39.5809 9.40893 39.0897 9.73717 38.7131 10.0895L38.4673 9.28167C38.4361 9.17923 38.3729 9.08953 38.2868 9.02578C38.2008 8.96204 38.0966 8.92762 37.9895 8.92759H35.2126C35.1647 8.92758 35.1172 8.937 35.073 8.95532C35.0287 8.97365 34.9884 9.00052 34.9546 9.03439C34.9207 9.06827 34.8938 9.1085 34.8754 9.15277C34.8571 9.19704 34.8477 9.24449 34.8477 9.29241V21.2354C34.8477 21.2833 34.8571 21.3308 34.8754 21.375C34.8938 21.4193 34.9207 21.4595 34.9546 21.4934C34.9884 21.5273 35.0287 21.5542 35.073 21.5725C35.1172 21.5908 35.1647 21.6002 35.2126 21.6002H38.6817C38.7296 21.6002 38.7771 21.5908 38.8214 21.5724C38.8656 21.5541 38.9059 21.5272 38.9398 21.4933C38.9737 21.4594 39.0005 21.4191 39.0189 21.3748C39.0372 21.3305 39.0466 21.2831 39.0466 21.2351V14.7295C39.0466 14.3731 39.0931 14.0296 39.1865 13.6989C39.2795 13.368 39.4197 13.0753 39.6066 12.8209C39.7895 12.5694 40.0292 12.3645 40.3062 12.2229C40.5863 12.079 40.9128 12.0067 41.286 12.0067C41.6589 12.0067 41.9684 12.079 42.2147 12.2229C42.4554 12.3622 42.6534 12.5646 42.7875 12.8082C42.923 13.0544 43.0204 13.3387 43.0797 13.6606C43.1394 13.9831 43.169 14.3223 43.169 14.6787V21.2354C43.169 21.2833 43.1784 21.3308 43.1967 21.375C43.2151 21.4193 43.242 21.4595 43.2759 21.4934C43.3097 21.5273 43.35 21.5542 43.3943 21.5725C43.4385 21.5908 43.486 21.6002 43.5339 21.6002H47.003C47.0509 21.6002 47.0983 21.5908 47.1426 21.5725C47.1869 21.5542 47.2271 21.5273 47.261 21.4934C47.2949 21.4595 47.3218 21.4193 47.3401 21.375C47.3585 21.3308 47.3679 21.2833 47.3679 21.2354V13.7624C47.3679 13.1351 47.2872 12.5072 47.126 11.8793C46.9647 11.252 46.7017 10.6961 46.3372 10.2126V10.2127ZM77.6522 18.2156C77.2785 18.0292 76.965 17.783 76.7107 17.4776C76.4561 17.1724 76.2652 16.8202 76.1378 16.4216C76.0122 16.031 75.948 15.6232 75.9474 15.2128C75.9474 14.8056 76.0111 14.4075 76.1378 14.0168C76.2654 13.6269 76.4561 13.2834 76.7107 12.9864C76.965 12.6896 77.2785 12.448 77.6522 12.2611C78.0249 12.0746 78.4579 11.9812 78.9501 11.9812C79.425 11.9812 79.8488 12.0746 80.2224 12.2611C80.5954 12.448 80.9132 12.6935 81.1767 12.999C81.4394 13.3045 81.6429 13.6523 81.7876 14.0424C81.9314 14.4327 82.0038 14.8313 82.0038 15.2384C82.0038 15.6454 81.9314 16.0443 81.7876 16.4344C81.6429 16.8247 81.4394 17.1724 81.1767 17.4777C80.9132 17.783 80.5952 18.0292 80.2224 18.2156C79.8488 18.4025 79.425 18.4957 78.9501 18.4957C78.4579 18.4957 78.0249 18.4025 77.6522 18.2156ZM85.6341 3.97217H82.1903C82.0936 3.97217 82.0008 4.01059 81.9324 4.07898C81.8641 4.14736 81.8256 4.24012 81.8256 4.33683V10.2763H81.7748C81.4183 9.85239 80.9178 9.46219 80.2734 9.10565C79.6285 8.74954 78.8397 8.57135 77.9069 8.57135C76.9909 8.57135 76.1638 8.74954 75.4255 9.10565C74.6877 9.46204 74.0597 9.94541 73.5425 10.5562C73.0247 11.1668 72.6265 11.8753 72.3465 12.6809C72.0666 13.4869 71.9265 14.331 71.9265 15.213C71.9265 16.0953 72.0624 16.9433 72.3337 17.7577C72.6051 18.5717 72.9993 19.2886 73.5171 19.9079C74.0344 20.5273 74.6662 21.0235 75.4128 21.3965C76.1593 21.7694 77.0073 21.9563 77.9575 21.9563C78.0722 21.9563 78.1858 21.9527 78.2988 21.9462C79.2899 21.9248 80.1365 21.7423 80.835 21.394C81.4366 21.0939 81.9274 20.7703 82.3115 20.4241L82.5809 21.2547C82.6135 21.3551 82.677 21.4426 82.7623 21.5046C82.8477 21.5667 82.9505 21.6001 83.056 21.6001H85.6341C85.7308 21.6001 85.8236 21.5617 85.892 21.4933C85.9604 21.4249 85.9989 21.3321 85.9989 21.2354V4.33683C85.9989 4.28893 85.9895 4.2415 85.9711 4.19725C85.9528 4.153 85.9259 4.11279 85.892 4.07892C85.8582 4.04506 85.818 4.0182 85.7737 3.99988C85.7294 3.98157 85.682 3.97215 85.6341 3.97217ZM108.483 8.92759H104.947C104.783 8.92759 104.639 9.03715 104.595 9.19533L102.455 16.9433H102.405L100.14 9.18996C100.118 9.11425 100.072 9.04776 100.009 9.00046C99.9456 8.95315 99.8688 8.92759 99.7899 8.92759H96.1406C96.0612 8.92755 95.9839 8.95347 95.9205 9.00141C95.8572 9.04935 95.8112 9.11668 95.7896 9.19315L93.5999 16.9433H93.5235L91.4083 9.1962C91.3872 9.11901 91.3413 9.0509 91.2777 9.00236C91.2142 8.95382 91.1364 8.92755 91.0564 8.92759H87.3429C87.2848 8.92761 87.2275 8.94151 87.1759 8.96813C87.1242 8.99476 87.0797 9.03335 87.0459 9.08068C87.0122 9.12802 86.9903 9.18272 86.9819 9.24025C86.9736 9.29778 86.9792 9.35645 86.9981 9.4114L91.1231 21.3544C91.1478 21.4262 91.1944 21.4884 91.2562 21.5325C91.318 21.5765 91.392 21.6002 91.4679 21.6002H95.1376C95.2156 21.6002 95.2914 21.5752 95.3542 21.529C95.4169 21.4828 95.4632 21.4177 95.4863 21.3432L97.8496 13.7116H97.9007L100.314 21.3453C100.337 21.4192 100.383 21.4838 100.446 21.5297C100.508 21.5755 100.584 21.6002 100.662 21.6002H104.334C104.489 21.6002 104.627 21.5018 104.678 21.355L108.827 9.41198C108.846 9.35704 108.852 9.29832 108.843 9.24074C108.835 9.18316 108.813 9.12838 108.78 9.08097C108.746 9.03356 108.701 8.9949 108.65 8.96822C108.598 8.94154 108.541 8.92761 108.483 8.92759ZM129.492 3.97217H125.972C125.924 3.97215 125.877 3.98157 125.832 3.99988C125.788 4.0182 125.748 4.04506 125.714 4.07892C125.68 4.11279 125.653 4.153 125.635 4.19725C125.617 4.2415 125.607 4.28893 125.607 4.33683V21.2354C125.607 21.3322 125.646 21.425 125.714 21.4934C125.782 21.5618 125.875 21.6002 125.972 21.6002H129.492C129.589 21.6002 129.682 21.5618 129.75 21.4934C129.819 21.425 129.857 21.3322 129.857 21.2354V4.33683C129.857 4.28893 129.848 4.2415 129.829 4.19725C129.811 4.153 129.784 4.11279 129.75 4.07892C129.716 4.04506 129.676 4.0182 129.632 3.99988C129.588 3.98157 129.54 3.97215 129.492 3.97217ZM136.463 3.97217H132.943C132.846 3.97217 132.753 4.01058 132.685 4.07896C132.616 4.14734 132.578 4.24009 132.578 4.33683V21.2354C132.578 21.3322 132.616 21.425 132.685 21.4934C132.753 21.5618 132.846 21.6002 132.943 21.6002H136.463C136.511 21.6002 136.558 21.5908 136.602 21.5725C136.647 21.5542 136.687 21.5273 136.721 21.4934C136.755 21.4595 136.782 21.4193 136.8 21.375C136.818 21.3308 136.828 21.2833 136.828 21.2354V4.33683C136.828 4.28893 136.818 4.2415 136.8 4.19725C136.781 4.153 136.755 4.11279 136.721 4.07892C136.687 4.04506 136.647 4.0182 136.602 3.99988C136.558 3.98157 136.511 3.97215 136.463 3.97217ZM113.641 17.4776C113.386 17.1724 113.195 16.8202 113.068 16.4216C112.942 16.0309 112.878 15.6232 112.877 15.2128C112.877 14.8056 112.941 14.4075 113.068 14.0168C113.195 13.6269 113.386 13.2834 113.641 12.9864C113.895 12.6896 114.209 12.448 114.582 12.2611C114.955 12.0746 115.388 11.9812 115.88 11.9812C116.355 11.9812 116.779 12.0746 117.152 12.2611C117.525 12.448 117.843 12.6935 118.107 12.999C118.369 13.3045 118.573 13.6523 118.717 14.0424C118.862 14.4327 118.934 14.8313 118.934 15.2384C118.934 15.6454 118.862 16.0443 118.717 16.4344C118.573 16.8247 118.369 17.1724 118.107 17.4777C117.843 17.783 117.525 18.0292 117.152 18.2156C116.779 18.4025 116.355 18.4957 115.88 18.4957C115.388 18.4957 114.955 18.4025 114.582 18.2156C114.209 18.0292 113.895 17.783 113.641 17.4776ZM122.564 8.49429L119.656 8.49371C119.548 8.49373 119.443 8.52858 119.357 8.59307C119.271 8.65756 119.207 8.74823 119.177 8.85156L118.837 10.0001C118.475 9.6816 118.016 9.3831 117.46 9.10565C116.746 8.74954 115.871 8.57135 114.838 8.57135H114.837C113.921 8.57135 113.094 8.74954 112.355 9.10565C111.618 9.46204 110.99 9.94541 110.472 10.5562C109.955 11.1668 109.557 11.8753 109.277 12.6809C108.996 13.4869 108.857 14.331 108.857 15.213C108.857 16.0953 108.992 16.9433 109.264 17.7577C109.535 18.5717 109.929 19.2886 110.447 19.9079C110.965 20.5273 111.596 21.0235 112.343 21.3965C113.089 21.7694 113.937 21.9563 114.888 21.9563C115.106 21.9563 115.322 21.9443 115.535 21.9211C116.312 21.8565 116.99 21.6818 117.567 21.394C118.251 21.053 118.792 20.6815 119.195 20.281L119.511 21.2546C119.543 21.3549 119.607 21.4423 119.692 21.5043C119.778 21.5663 119.88 21.5997 119.986 21.5996L122.564 21.6002C122.612 21.6002 122.659 21.5908 122.704 21.5725C122.748 21.5542 122.788 21.5273 122.822 21.4934C122.856 21.4595 122.883 21.4193 122.901 21.375C122.919 21.3308 122.929 21.2833 122.929 21.2354V8.8591C122.929 8.76237 122.89 8.6696 122.822 8.60119C122.754 8.53278 122.661 8.49433 122.564 8.49429ZM71.4796 8.60704L71.449 8.60109L71.4964 8.57135C71.3909 8.57135 71.2883 8.57454 71.1865 8.57817C71.1023 8.57381 71.0171 8.57135 70.9308 8.57135C70.3814 8.57135 69.8793 8.67525 69.4225 8.8784C69.2347 8.94181 69.0513 9.01773 68.8737 9.10565C68.2008 9.44144 67.6713 9.8077 67.2818 10.2036L67.026 9.30561C66.9962 9.20115 66.9332 9.10924 66.8466 9.0438C66.7599 8.97836 66.6542 8.94296 66.5456 8.94298L63.7885 8.94254C63.6918 8.94258 63.599 8.98103 63.5306 9.04943C63.4622 9.11784 63.4237 9.21061 63.4237 9.30735V21.2354C63.4237 21.3322 63.4622 21.425 63.5306 21.4934C63.5991 21.5618 63.6919 21.6002 63.7886 21.6002H67.2324C67.3292 21.6002 67.4219 21.5617 67.4903 21.4933C67.5587 21.4249 67.5971 21.3321 67.5971 21.2354V15.1033C67.5971 14.8496 67.6483 14.5536 67.7499 14.2153C67.8518 13.8771 68.0172 13.5641 68.2462 13.2763C68.4752 12.9887 68.7806 12.7433 69.1621 12.5402C69.5439 12.3374 70.0145 12.2357 70.5744 12.2357C70.7439 12.2357 70.9183 12.2444 71.0962 12.2611L71.2639 12.282C71.3116 12.2867 71.3598 12.2819 71.4056 12.268C71.4515 12.2541 71.4941 12.2313 71.5311 12.2008C71.5681 12.1704 71.5988 12.133 71.6214 12.0907C71.6439 12.0485 71.6579 12.0022 71.6626 11.9545L71.8025 9.00944C71.813 8.91327 71.7849 8.81686 71.7243 8.74141C71.6638 8.66596 71.5757 8.61763 71.4796 8.60704ZM52.7543 13.8134C52.7712 13.4912 52.8565 13.1814 53.0089 12.8845C53.1609 12.589 53.3683 12.3254 53.6199 12.1083C53.8746 11.8882 54.1709 11.7139 54.5103 11.5868C54.8499 11.4595 55.2228 11.3959 55.63 11.3959C56.4612 11.3959 57.0846 11.6338 57.5002 12.1084C57.916 12.5835 58.1241 13.1518 58.1241 13.8134H52.7543ZM60.1852 10.3524C59.6251 9.75909 58.9548 9.30532 58.1748 8.9913C57.3941 8.67742 56.5374 8.52056 55.6046 8.52056C54.6379 8.52056 53.7383 8.68192 52.9071 9.00378C52.0756 9.32636 51.355 9.78013 50.7439 10.3654C50.1333 10.9506 49.6498 11.6631 49.2938 12.5029C48.9373 13.3426 48.7593 14.2802 48.7593 15.3147C48.7593 16.3836 48.9415 17.3339 49.3063 18.1647C49.6713 18.9962 50.1719 19.6959 50.8078 20.2642C51.4438 20.8327 52.1856 21.2652 53.0344 21.5621C53.8827 21.8587 54.7818 22.0073 55.732 22.0073C57.0212 22.0073 58.1534 21.7738 59.1288 21.3074C59.7255 21.0219 60.2508 20.6624 60.7044 20.2277C60.7454 20.1883 60.7782 20.1411 60.8007 20.0889C60.8232 20.0367 60.8352 19.9805 60.8357 19.9236C60.8363 19.8667 60.8256 19.8103 60.8041 19.7576C60.7826 19.705 60.7509 19.6571 60.7107 19.6168L58.908 17.8054C58.7431 17.6397 58.4712 17.6324 58.3082 17.8003C58.0688 18.0472 57.787 18.2577 57.4622 18.4318C57.0039 18.6781 56.4444 18.8009 55.7831 18.8009C55.4094 18.8009 55.0488 18.7417 54.7013 18.6228C54.3536 18.5044 54.0397 18.339 53.7598 18.1265C53.4797 17.9147 53.2505 17.6645 53.0727 17.3759C52.8948 17.0877 52.7883 16.7652 52.7543 16.409H61.9412C61.9582 16.2483 61.9665 16.0869 61.9662 15.9253V15.4166C61.9662 14.3311 61.8093 13.3641 61.4956 12.5158C61.1813 11.6675 60.7451 10.9465 60.1852 10.3526V10.3524ZM142.404 13.8134C142.421 13.4912 142.506 13.1814 142.658 12.8845C142.81 12.589 143.018 12.3254 143.269 12.1083C143.524 11.8882 143.82 11.7139 144.16 11.5868C144.499 11.4595 144.873 11.3959 145.28 11.3959C146.111 11.3959 146.734 11.6338 147.15 12.1084C147.565 12.5835 147.774 13.1518 147.774 13.8134H142.404ZM149.835 10.3524C149.275 9.75909 148.604 9.30532 147.824 8.9913C147.044 8.67742 146.187 8.52056 145.254 8.52056C144.287 8.52056 143.388 8.68192 142.557 9.00378C141.725 9.32636 141.004 9.78013 140.394 10.3654C139.783 10.9506 139.299 11.6631 138.943 12.5029C138.587 13.3426 138.409 14.2802 138.409 15.3147C138.409 16.3836 138.591 17.3339 138.956 18.1647C139.321 18.9962 139.822 19.6959 140.457 20.2642C141.093 20.8327 141.835 21.2652 142.684 21.5621C143.532 21.8587 144.431 22.0073 145.381 22.0073C146.671 22.0073 147.803 21.7738 148.778 21.3074C149.375 21.0219 149.9 20.6624 150.354 20.2277C150.395 20.1883 150.428 20.1411 150.45 20.0889C150.473 20.0366 150.485 19.9805 150.485 19.9236C150.486 19.8667 150.475 19.8103 150.454 19.7576C150.432 19.705 150.4 19.6571 150.36 19.6168L148.558 17.8054C148.393 17.6397 148.12 17.6324 147.958 17.8003C147.718 18.0472 147.437 18.2577 147.112 18.4318C146.654 18.6781 146.094 18.8009 145.432 18.8009C145.059 18.8009 144.698 18.7417 144.351 18.6228C144.003 18.5044 143.689 18.339 143.409 18.1265C143.13 17.9147 142.9 17.6645 142.722 17.3759C142.544 17.0877 142.438 16.7652 142.404 16.409H151.591C151.608 16.2483 151.616 16.0869 151.616 15.9253V15.4166C151.616 14.3311 151.459 13.3641 151.145 12.5158C150.831 11.6675 150.395 10.9465 149.835 10.3526" fill="#6AC32F"/>
<path d="M8.61501 0.0515147C8.52557 0.0177818 8.43082 0.000334894 8.33523 0H0.57058C0.419253 0 0.274124 0.0601145 0.167119 0.167119C0.0601145 0.274124 0 0.419253 0 0.57058L0 8.66681L8.61501 0.0515147ZM0.167169 25.8328C0.220075 25.8859 0.282953 25.928 0.352185 25.9567C0.421418 25.9854 0.495639 26.0001 0.57058 26H8.09609C8.24738 26 8.39246 25.9399 8.49946 25.8329C8.60645 25.7259 8.66659 25.5809 8.66667 25.4296V17.3335L0.167169 25.8328Z" fill="#0F9B4A"/>
<path d="M17.3398 8.66772V25.9282C17.3568 25.9359 17.374 25.943 17.3915 25.9495L26.0065 17.3344L17.3398 8.66772Z" fill="#1B523D"/>
<path d="M8.66667 17.3335V0.073862C8.64954 0.0660259 8.63271 0.0580448 8.61501 0.0515147L0 8.66681V25.4296C0 25.5872 0.0638492 25.7298 0.167169 25.833L8.66667 17.3335ZM25.9997 17.3335V0.57058C25.9997 0.49567 25.985 0.421489 25.9563 0.352273C25.9277 0.283057 25.8857 0.220162 25.8327 0.167179C25.7798 0.114196 25.7169 0.072162 25.6477 0.0434773C25.5785 0.0147927 25.5043 1.90539e-05 25.4294 0H17.9039C17.7527 -1.22247e-07 17.6077 0.0600148 17.5007 0.166862C17.3937 0.27371 17.3335 0.418653 17.3333 0.569855V8.66681L25.9997 17.3335ZM25.9997 17.3335L17.3848 25.9486C17.4735 25.9819 17.568 26 17.6646 26H25.4293C25.5806 26 25.7257 25.9399 25.8327 25.8329C25.9397 25.726 25.9998 25.5809 25.9999 25.4296L25.9997 17.3335Z" fill="#6AC32F"/>
<path d="M8.66117 17.3342H8.66016H8.66117ZM17.3267 8.66724V8.66738V8.66724Z" fill="#D2D2D2"/>
<path d="M8.89451 0.233591C8.82665 0.166514 8.74726 0.112198 8.66016 0.0732422V17.3329L17.0923 25.765C17.1607 25.8332 17.2405 25.8872 17.3267 25.9265V8.66604L8.89451 0.233591Z" fill="#0F9B4A"/>
</svg>
