<svg width="98" height="26" viewBox="0 0 98 26" fill="none" xmlns="http://www.w3.org/2000/svg">
<path d="M14.1191 24.3241C12.6719 24.5782 11.1992 24.6544 9.67583 24.8574L5.02923 11.2481V25.4415C3.58202 25.5938 2.26174 25.7969 0.890625 26V0H4.7501L10.0312 14.7522V0H14.1191V24.3241ZM22.1172 9.52149C23.6915 9.52149 26.1036 9.4453 27.5508 9.4453V13.5077C25.748 13.5077 23.6407 13.5077 22.1172 13.5839V19.627C24.504 19.4747 26.8907 19.2714 29.3027 19.1952V23.1051L18.0546 23.994V0H29.3027V4.06251H22.1172V9.52149ZM44.4101 4.0626H40.1953V22.7501C38.8242 22.7501 37.4531 22.7501 36.133 22.8007V4.0626H31.9182V0H44.4103L44.4101 4.0626ZM51.0116 9.24227H56.5723V13.3047H51.0116V22.5216H47.025V0H58.375V4.06251H51.0116V9.24227ZM64.9765 18.9668C67.2871 19.0174 69.6229 19.1955 71.8828 19.3222V23.334C68.252 23.1053 64.6211 22.8771 60.9141 22.8007V0H64.9765V18.9668ZM75.3105 23.6133C76.6054 23.6896 77.9765 23.7658 79.2968 23.9179V0H75.3105V23.6133ZM97.0958 0L91.9414 12.3653L97.0958 26C95.5722 25.7969 94.0488 25.5176 92.5253 25.2636L89.6055 17.7482L86.635 24.6544C85.1621 24.4003 83.7402 24.3241 82.2679 24.121L87.4983 12.2128L82.7755 0H87.1425L89.8085 6.83009L92.6524 0H97.0958Z" fill="#D81F26"/>
</svg>
