<svg width="124" height="26" viewBox="0 0 124 26" fill="none" xmlns="http://www.w3.org/2000/svg">
<path fill-rule="evenodd" clip-rule="evenodd" d="M2.54703 4.20167C2.54703 2.64864 2.54703 1.82657 0.902225 1.73545H0.354176V0.181763C0.354176 0.181763 1.35915 0.273544 1.54206 0.273544C1.9072 0.273544 2.91218 0.364666 3.27799 0.364666C4.19118 0.364666 8.39399 0.181763 9.39897 0.181763C15.4282 0.181763 16.1591 4.29345 16.068 6.57677C16.068 9.86573 14.3321 12.1497 12.4139 12.8807C12.4139 12.8807 14.1498 15.7127 14.1498 15.8943L17.8951 22.4729C18.5349 23.569 19.1741 23.6607 19.905 23.6607V25.122H18.8083C18.4431 25.122 15.6111 25.2138 15.2453 25.0302C14.6061 24.7568 13.9663 24.5739 13.6011 23.7505C13.6011 23.7505 10.678 18.2694 10.0381 16.9904C9.48943 15.8038 8.66736 14.3413 8.39333 14.3413C8.11931 14.2495 6.56628 14.3413 6.56628 14.3413V21.1014C6.56628 22.7456 7.11433 23.5683 8.94204 23.7505V25.1213H8.02819C7.38836 25.1213 4.64811 25.0295 4.46521 25.0295C3.9165 25.0295 2.08945 25.1213 1.5414 25.1213H0.353516V23.7505C2.36347 23.569 2.54637 22.8373 2.54637 21.1932V4.20167H2.54703ZM6.56694 12.0586H7.4808C8.66802 11.9675 11.683 11.6928 11.5918 6.66856C11.5918 4.75038 11.2267 2.2835 7.4808 2.2835C6.84097 2.2835 6.56694 2.37462 6.56694 2.37462V12.0586ZM37.6275 5.38955L36.5314 5.57179C36.5314 5.57179 36.1662 4.01877 35.7093 3.28781C34.7043 1.91769 33.3342 1.36964 31.5072 1.36964C27.8531 1.36964 26.026 5.11553 26.026 8.49561C26.026 12.2415 28.4011 15.6216 31.7812 15.6216C34.1569 15.6216 35.5271 14.2508 36.1662 12.7895C36.5314 11.8757 36.7143 11.0536 36.7143 11.0536L37.9933 11.2365C37.9015 12.5155 37.3541 15.5298 37.3541 15.5298C37.3541 15.5298 37.1712 15.8045 36.5314 15.9861C35.9833 16.3525 33.7911 17.0822 31.2331 17.0822C24.1989 17.0822 22.463 11.9668 22.463 8.58673C22.463 4.93196 24.9299 0.181763 31.5072 0.181763C32.695 0.181763 33.5171 0.181763 35.253 0.54757C36.4403 0.730473 37.2623 0.82159 37.2623 0.82159L37.6275 5.38955Z" fill="#F6D563"/>
<path fill-rule="evenodd" clip-rule="evenodd" d="M19.6319 0.365147C19.997 0.365147 22.0981 0.274025 22.3721 0.274025H23.012V1.279L22.555 1.37012C21.276 1.37012 21.276 1.82705 21.276 2.92381V14.069C21.276 15.1651 21.4589 15.5303 23.012 15.6221V16.8099H22.0981C21.6418 16.8099 20.0888 16.627 19.6319 16.627C19.175 16.627 17.7131 16.8099 17.165 16.8099H16.2518V15.6221C17.8048 15.5303 17.9877 15.1658 17.9877 14.069V2.92381C17.9877 1.82705 17.9877 1.37012 16.7087 1.37012C16.2518 1.279 16.3429 1.279 16.3429 1.279V0.274025H16.8916C17.1657 0.274025 19.3579 0.365147 19.6319 0.365147ZM50.3273 9.04414V14.069C50.3273 15.1651 50.1444 15.5303 48.5914 15.6221V16.8099H49.5052C50.0533 16.8099 51.5152 16.627 51.9714 16.627C52.4284 16.627 53.9814 16.8099 54.4383 16.8099H55.3515V15.6221C53.7985 15.5303 53.6156 15.1658 53.6156 14.069V2.92381C53.6156 1.82705 53.6156 1.37012 54.8946 1.279H55.3515V0.274025H54.7117C54.4377 0.274025 52.3366 0.365147 51.9714 0.365147C51.6974 0.365147 49.5052 0.274025 49.2312 0.274025H48.6831V1.279H49.0483C50.3273 1.37012 50.3273 1.82705 50.3273 2.92381V7.58289H43.0191V2.92381C43.0191 1.82705 43.0191 1.37012 44.2981 1.279H44.755L44.6632 0.274025H44.1152C43.8412 0.274025 41.7401 0.365147 41.3749 0.365147C41.1009 0.365147 38.9087 0.274025 38.6347 0.274025H38.086V1.279H38.4518C39.7308 1.37012 39.7308 1.82705 39.7308 2.92381V14.069C39.7308 15.1651 39.5479 15.5303 37.9948 15.6221V16.8099H38.9087C39.365 16.8099 40.918 16.627 41.3749 16.627C41.8319 16.627 43.3849 16.8099 43.8411 16.8099H44.755V15.6221C43.202 15.5303 43.0191 15.1658 43.0191 14.069V9.04414H50.3273ZM63.8476 9.04414H60.9244V14.069C60.9244 15.1651 61.2903 15.5303 62.8433 15.6221V16.8099H61.7465C61.2902 16.8099 59.7366 16.627 59.2803 16.627C58.8234 16.627 57.3621 16.8099 56.8141 16.8099H55.9002V15.6221C57.4532 15.5303 57.6362 15.1658 57.6362 14.069V2.92381C57.6362 1.82705 57.6361 1.37012 56.3565 1.279H55.9913V0.274025H56.5394C56.8141 0.274025 59.0063 0.365147 59.2803 0.365147H63.8476C64.2127 0.365147 66.6796 0.274025 66.6796 0.274025L67.1359 4.38506L66.2227 4.56796C66.2227 4.56796 65.5829 2.28398 64.7615 1.73593C63.8469 1.18788 62.3857 1.279 62.2028 1.279C61.2896 1.279 60.9238 1.18788 60.9238 2.92381V7.58289H64.0305C64.8519 7.58289 65.1266 6.76082 65.3088 5.84696H66.3145C66.3145 5.84696 66.2227 6.85194 66.2227 8.31318C66.2227 9.22704 66.3145 10.963 66.3145 10.963H65.2184C65.1273 9.86621 64.8526 9.04414 63.8476 9.04414ZM66.9543 8.49609C66.9543 4.84198 69.0554 0 75.7238 0C82.0276 0 84.2198 4.84198 84.2198 8.49609C84.2198 11.8762 82.1188 16.9915 75.7238 16.9915C68.6889 16.9915 66.9543 11.8762 66.9543 8.49609ZM75.7244 15.5303C79.1045 15.5303 80.7486 12.1502 80.7486 8.4043C80.7486 5.02423 79.3779 1.27834 75.7244 1.27834C72.0697 1.27834 70.4255 5.02357 70.4255 8.4043C70.4249 12.1502 72.3437 15.5303 75.7244 15.5303ZM84.9501 8.49609C84.9501 4.84198 87.0525 0 93.7209 0C100.025 0 102.217 4.84198 102.217 8.49609C102.217 11.8762 100.115 16.9915 93.7209 16.9915C86.6861 16.9915 84.9501 11.8762 84.9501 8.49609ZM93.7209 15.5303C97.0092 15.5303 98.654 12.1502 98.654 8.4043C98.654 5.02423 97.2832 1.27834 93.7209 1.27834C90.0661 1.27834 88.422 5.02357 88.422 8.4043C88.422 12.1502 90.3408 15.5303 93.7209 15.5303ZM117.93 23.5701C121.858 21.1943 123.776 16.7181 123.685 12.5153C123.685 6.30323 121.584 2.558 117.29 0.913853C115.463 0.1829 112.448 0.274025 109.982 0.274025C108.886 0.274025 106.785 0.365147 105.87 0.365147C105.597 0.365147 103.313 0.182244 102.856 0.182244H101.669V1.64415H102.217C103.861 1.64415 103.861 2.64913 103.861 4.29393V21.2861C103.861 22.9303 103.586 23.5701 101.669 23.6619V25.1231H102.765C103.405 25.1231 105.049 25.0313 105.597 25.0313C105.689 25.0313 110.621 25.2142 110.621 25.2142C113.546 25.2142 115.647 24.9396 117.93 23.5701ZM108.338 2.55801C108.338 2.3751 108.43 2.3751 108.611 2.28398C117.107 1.73593 119.209 5.84696 119.209 12.6071C119.209 18.9103 116.286 23.3872 110.622 23.3872C108.703 23.2954 108.338 23.1125 108.338 21.0114V2.55801ZM121.874 21.9656C122.221 21.9681 122.562 22.0578 122.866 22.2264C123.188 22.4007 123.44 22.6496 123.619 22.9732C123.8 23.2954 123.89 23.6335 123.89 23.9841C123.89 24.3321 123.801 24.6662 123.623 24.9864C123.452 25.3018 123.193 25.5611 122.878 25.7332C122.558 25.9115 122.224 26 121.874 26C121.524 26 121.191 25.9109 120.87 25.7332C120.555 25.5607 120.296 25.3016 120.124 24.9864C119.949 24.6812 119.857 24.3357 119.857 23.9841C119.857 23.6335 119.947 23.2954 120.128 22.9732C120.308 22.6496 120.559 22.4007 120.882 22.2264C121.205 22.0534 121.536 21.9656 121.874 21.9656ZM121.874 22.301C121.59 22.301 121.314 22.373 121.047 22.5189C120.782 22.6606 120.563 22.8765 120.418 23.1402C120.266 23.4096 120.19 23.6909 120.19 23.9834C120.19 24.2733 120.264 24.552 120.414 24.8181C120.559 25.0808 120.774 25.2971 121.037 25.442C121.305 25.5906 121.584 25.6652 121.874 25.6652C122.165 25.6652 122.444 25.5906 122.711 25.442C122.978 25.2922 123.186 25.0848 123.333 24.8181C123.479 24.5625 123.556 24.2732 123.555 23.9788C123.555 23.6844 123.477 23.3953 123.33 23.1402C123.185 22.8762 122.966 22.6602 122.7 22.5189C122.447 22.3775 122.163 22.3026 121.874 22.301ZM120.989 25.098V22.9289H121.735C121.99 22.9289 122.175 22.9481 122.288 22.9884C122.397 23.0268 122.492 23.0981 122.559 23.1925C122.626 23.2868 122.662 23.3996 122.662 23.5153C122.662 23.592 122.648 23.6681 122.619 23.7392C122.59 23.8103 122.547 23.8749 122.493 23.9293C122.379 24.0481 122.229 24.1135 122.041 24.128C122.109 24.1544 122.172 24.1934 122.225 24.2429C122.313 24.3281 122.42 24.4727 122.546 24.6735L122.81 25.098H122.384L122.19 24.756C122.039 24.4879 121.918 24.3189 121.825 24.2515C121.761 24.2 121.667 24.1769 121.544 24.1769H121.339V25.098H120.989ZM121.341 23.8771H121.765C121.968 23.8771 122.107 23.8461 122.181 23.7867C122.216 23.7578 122.245 23.7211 122.264 23.6792C122.284 23.6374 122.293 23.5917 122.291 23.5457C122.292 23.4839 122.274 23.4235 122.239 23.3727C122.201 23.3214 122.15 23.2823 122.09 23.2604C122.027 23.2347 121.91 23.2228 121.738 23.2228H121.341V23.8771Z" fill="#F6D563"/>
</svg>
