<svg width="118" height="26" viewBox="0 0 118 26" fill="none" xmlns="http://www.w3.org/2000/svg">
<path d="M13.3116 8.44668H18.7998L19.3425 6.15492C19.3425 6.15492 20.0662 3.01883 17.7745 1.5111C17.7745 1.5111 16.2064 0.00336437 12.0451 0.00336437C12.0451 0.00336437 7.28065 -0.177564 4.9889 2.11419C4.9889 2.11419 2.21466 4.58688 2.75745 9.04978C2.75745 9.04978 3.1193 11.1606 5.23013 12.7286L10.0549 15.9854C10.0549 15.9854 11.8642 17.2519 10.8389 19.6642C10.8389 19.6642 10.4771 21.3529 8.06468 21.172C8.06468 21.172 5.6523 21.2926 5.59199 19.1214C5.59199 19.1214 5.71261 17.674 6.07447 16.8297H0.706928C0.706928 16.8297 -1.82607 23.8256 3.42085 25.4539C3.42085 25.4539 10.8992 27.4441 14.6987 23.8256C14.6987 23.8256 18.1967 20.207 16.6889 15.0807C16.6889 15.0807 16.2668 13.6936 14.5781 12.608L9.15025 8.92916C9.15025 8.92916 7.64251 7.66266 8.90901 5.79307C8.90901 5.79307 9.33117 4.76781 11.5023 4.82812C11.5023 4.82812 14.0353 4.76781 13.6131 6.93895L13.3116 8.44668ZM22.0565 0.48584H27.6652L26.0972 7.48173C26.0972 7.48173 29.0524 6.81833 31.1632 7.42142C31.1632 7.42142 34.3596 7.9039 33.4549 12.0652L30.5601 25.1524H24.9513L27.6049 13.3317C27.6049 13.3317 28.0874 11.6431 26.5797 11.6431C26.5797 11.6431 25.6147 11.6431 25.1925 11.824L22.2374 25.1524H16.6286L22.0565 0.48584ZM42.1998 5.06935L43.2251 0.48584H37.6163L36.591 5.06935H42.1998ZM37.7369 25.2127L41.7173 7.24049H36.1086L32.0678 25.2127H37.7369ZM39.2446 25.2127L43.2251 7.3008H53.1158C53.1158 7.3008 56.3122 7.48173 55.9504 10.4972L46.2405 11.1606L55.4679 11.9446L45.8787 12.5477L55.106 13.3317L45.5168 13.9951L47.3261 14.357L44.9137 25.1524H39.2446V25.2127Z" fill="#034EA2"/>
<path d="M49.6157 14.5379L55.1642 14.8395L53.2946 25.1524H47.2637L49.6157 14.5379ZM56.3704 9.59257L57.8781 0.485847H58.9637L56.3704 9.59257ZM57.6972 9.59257L59.2049 0.425537H60.2905L57.6972 9.59257ZM59.024 9.59257L60.5317 0.485847H61.6173L59.024 9.59257ZM60.3508 9.59257L61.8586 0.485847H62.9441L60.3508 9.59257ZM61.6776 9.59257L63.1854 0.485847H64.2709L61.6776 9.59257Z" fill="#034EA2"/>
<path d="M60.1167 16.106L58.609 25.2127H57.5234L60.1167 16.106ZM58.7899 16.106L57.2822 25.2127H56.1966L58.7899 16.106ZM57.4631 16.106L55.9553 25.2127H54.8698L57.4631 16.106ZM56.1363 16.106L54.6285 25.2127H53.543L56.1363 16.106ZM64.5193 0.425537H78.2095L77.2446 4.70751H69.1631L67.8966 10.256H74.0482L73.0229 14.7792H66.8713L65.6048 20.5086H73.6863L72.661 25.1524H58.9708L61.8054 14.7792L71.9976 13.9952L62.7703 13.2714L72.1183 12.4874L63.2528 11.824L72.4801 11.04L62.8306 10.3163L64.5193 0.425537ZM79.1142 0.425537H84.542L83.0343 7.05957H87.7384L86.7131 11.5828H82.1296L80.3203 19.5436C80.3203 19.5436 79.8379 20.9307 81.4662 20.9307H84.542L83.6977 24.7905C83.6977 24.7905 81.2853 25.8761 78.3301 25.2127C78.3301 25.2127 73.626 24.7905 74.9528 19.423L79.1142 0.425537ZM96.4229 12.789H101.187C101.187 12.789 102.514 9.23071 99.4987 7.66267C99.4987 7.66267 97.6894 6.5771 94.3724 6.75803C94.3724 6.75803 91.5982 6.75803 89.8492 7.9039C89.8492 7.9039 86.7734 9.65288 87.6178 13.8745C87.6178 13.8745 88.1003 15.322 89.2461 15.9854L93.709 18.6993C93.709 18.6993 94.5534 19.5436 94.1312 20.4483C94.1312 20.4483 94.0106 21.4132 92.3219 21.4132C92.3219 21.4132 90.5729 21.6544 90.5729 20.0864C90.5729 20.0864 90.5729 19.423 90.6936 18.5184H85.8085C85.8085 18.5184 84.7229 21.5941 85.8688 23.1622C85.8688 23.1622 86.8941 25.3936 91.9601 25.3936C91.9601 25.3936 97.3879 25.8761 98.9559 22.4988C98.9559 22.4988 100.765 19.1215 98.8353 16.7694C98.8353 16.7694 97.9307 15.8044 96.7245 15.2013L93.709 13.573C93.709 13.573 92.3822 12.9699 92.6838 11.7034C92.6838 11.7034 92.7441 10.5575 94.6137 10.4972C94.6137 10.5575 96.8451 10.3766 96.4229 12.789ZM103.419 7.05957H109.028L106.253 19.3024C106.253 19.3024 106.012 20.6895 106.917 20.6895H108.605L111.681 6.99926H117.29L113.37 24.7302L106.917 25.3333C106.917 25.3333 103.057 25.5746 101.67 23.8256C101.67 23.8256 99.8606 22.5591 100.765 18.3374L103.419 7.05957Z" fill="#00929E"/>
</svg>
